<?xml version="1.0" encoding="UTF-8" standalone="no"?>
<!-- Created with Inkscape (http://www.inkscape.org/) -->
<svg
   xmlns:dc="http://purl.org/dc/elements/1.1/"
   xmlns:cc="http://creativecommons.org/ns#"
   xmlns:rdf="http://www.w3.org/1999/02/22-rdf-syntax-ns#"
   xmlns:svg="http://www.w3.org/2000/svg"
   xmlns="http://www.w3.org/2000/svg"
   xmlns:sodipodi="http://sodipodi.sourceforge.net/DTD/sodipodi-0.dtd"
   xmlns:inkscape="http://www.inkscape.org/namespaces/inkscape"
   width="1024px"
   height="768px"
   id="svg10836"
   sodipodi:version="0.32"
   inkscape:version="0.46"
   sodipodi:docname="propery i datatype.svg"
   inkscape:output_extension="org.inkscape.output.svg.inkscape">
  <defs
     id="defs10838">
    <marker
       inkscape:stockid="Arrow1Lstart"
       orient="auto"
       refY="0.0"
       refX="0.0"
       id="Arrow1Lstart"
       style="overflow:visible">
      <path
         id="path3955"
         d="M 0.0,0.0 L 5.0,-5.0 L -12.5,0.0 L 5.0,5.0 L 0.0,0.0 z "
         style="fill-rule:evenodd;stroke:#000000;stroke-width:1.0pt;marker-start:none"
         transform="scale(0.8) translate(12.5,0)" />
    </marker>
    <marker
       inkscape:stockid="EmptyDiamondSend"
       orient="auto"
       refY="0.0"
       refX="0.0"
       id="EmptyDiamondSend"
       style="overflow:visible">
      <path
         id="path4086"
         d="M 0,-7.0710768 L -7.0710894,0 L 0,7.0710589 L 7.0710462,0 L 0,-7.0710768 z "
         style="fill-rule:evenodd;fill:#FFFFFF;stroke:#000000;stroke-width:1.0pt;marker-start:none"
         transform="scale(0.2) translate(-6,0)" />
    </marker>
    <marker
       inkscape:stockid="DotL"
       orient="auto"
       refY="0.0"
       refX="0.0"
       id="DotL"
       style="overflow:visible">
      <path
         id="path4017"
         d="M -2.5,-1.0 C -2.5,1.7600000 -4.7400000,4.0 -7.5,4.0 C -10.260000,4.0 -12.5,1.7600000 -12.5,-1.0 C -12.5,-3.7600000 -10.260000,-6.0 -7.5,-6.0 C -4.7400000,-6.0 -2.5,-3.7600000 -2.5,-1.0 z "
         style="fill-rule:evenodd;stroke:#000000;stroke-width:1.0pt;marker-start:none;marker-end:none"
         transform="scale(0.8) translate(7.4, 1)" />
    </marker>
    <marker
       inkscape:stockid="Torso"
       orient="auto"
       refY="0.0"
       refX="0.0"
       id="Torso"
       style="overflow:visible">
      <g
         id="g4168"
         transform="scale(0.7)">
        <path
           id="path4170"
           d="M -4.7792281,-3.2395420 C -2.4288541,-2.8736027 0.52103922,-1.3019943 0.25792722,0.38794346 C -0.0051877922,2.0778819 -2.2126741,2.6176539 -4.5630471,2.2517169 C -6.9134221,1.8857769 -8.5210350,0.75201414 -8.2579220,-0.93792336 C -7.9948090,-2.6278615 -7.1296041,-3.6054813 -4.7792281,-3.2395420 z "
           style="fill:none;fill-opacity:0.75000000;fill-rule:evenodd;stroke:#000000;stroke-width:1.2500000;marker-start:none;marker-mid:none;marker-end:none" />
        <path
           id="path4172"
           d="M 4.4598789,0.088665736 C -2.5564571,-4.3783320 5.2248769,-3.9061806 -0.84829578,-8.7197331"
           style="fill:none;fill-opacity:0.75000000;fill-rule:evenodd;stroke:#000000;stroke-width:1.0000000pt;marker-end:none" />
        <path
           id="path4174"
           d="M 4.9298719,0.057520736 C -1.3872731,1.7494689 1.8027579,5.4782079 -4.9448731,7.5462725"
           style="fill:none;fill-opacity:0.75000000;fill-rule:evenodd;stroke:#000000;stroke-width:1.0000000pt;marker-start:none;marker-end:none" />
        <rect
           id="rect4176"
           transform="matrix(0.527536,-0.849533,0.887668,0.460484,0,0)"
           y="-1.7408575"
           x="-10.391706"
           height="2.7608147"
           width="2.6366582"
           style="fill-rule:evenodd;stroke-width:1.0000000pt;marker-end:none" />
        <rect
           id="rect4178"
           transform="matrix(0.671205,-0.741272,0.790802,0.612072,0,0)"
           y="-7.9629307"
           x="4.9587269"
           height="2.8614161"
           width="2.7327356"
           style="fill-rule:evenodd;stroke-width:1.0000000pt;marker-end:none" />
        <path
           id="path4180"
           transform="matrix(0,-1.109517,1.109517,0,25.96648,19.71619)"
           d="M 16.779951 -28.685045 A 0.60731727 0.60731727 0 1 0 15.565317,-28.685045 A 0.60731727 0.60731727 0 1 0 16.779951 -28.685045 z"
           sodipodi:ry="0.60731727"
           sodipodi:rx="0.60731727"
           sodipodi:cy="-28.685045"
           sodipodi:cx="16.172634"
           style="fill:#ff0000;fill-opacity:0.75000000;fill-rule:evenodd;stroke:#000000;stroke-width:1.0000000pt;marker-start:none;marker-end:none"
           sodipodi:type="arc" />
        <path
           id="path4182"
           transform="matrix(0,-1.109517,1.109517,0,26.82450,16.99126)"
           d="M 16.779951 -28.685045 A 0.60731727 0.60731727 0 1 0 15.565317,-28.685045 A 0.60731727 0.60731727 0 1 0 16.779951 -28.685045 z"
           sodipodi:ry="0.60731727"
           sodipodi:rx="0.60731727"
           sodipodi:cy="-28.685045"
           sodipodi:cx="16.172634"
           style="fill:#ff0000;fill-opacity:0.75000000;fill-rule:evenodd;stroke:#000000;stroke-width:1.0000000pt;marker-start:none;marker-end:none"
           sodipodi:type="arc" />
      </g>
    </marker>
    <marker
       inkscape:stockid="Arrow1Lend"
       orient="auto"
       refY="0.0"
       refX="0.0"
       id="Arrow1Lend"
       style="overflow:visible;">
      <path
         id="path3958"
         d="M 0.0,0.0 L 5.0,-5.0 L -12.5,0.0 L 5.0,5.0 L 0.0,0.0 z "
         style="fill-rule:evenodd;stroke:#000000;stroke-width:1.0pt;marker-start:none;"
         transform="scale(0.8) rotate(180) translate(12.5,0)" />
    </marker>
    <inkscape:perspective
       sodipodi:type="inkscape:persp3d"
       inkscape:vp_x="0 : 384 : 1"
       inkscape:vp_y="0 : 1000 : 0"
       inkscape:vp_z="1024 : 384 : 1"
       inkscape:persp3d-origin="512 : 256 : 1"
       id="perspective10844" />
  </defs>
  <sodipodi:namedview
     id="base"
     pagecolor="#ffffff"
     bordercolor="#666666"
     borderopacity="1.0"
     inkscape:pageopacity="0.0"
     inkscape:pageshadow="2"
     inkscape:zoom="0.70710678"
     inkscape:cx="569.12462"
     inkscape:cy="303.60297"
     inkscape:current-layer="g14803"
     inkscape:document-units="px"
     showgrid="false"
     inkscape:window-width="1280"
     inkscape:window-height="727"
     inkscape:window-x="0"
     inkscape:window-y="24" />
  <metadata
     id="metadata10841">
    <rdf:RDF>
      <cc:Work
         rdf:about="">
        <dc:format>image/svg+xml</dc:format>
        <dc:type
           rdf:resource="http://purl.org/dc/dcmitype/StillImage" />
      </cc:Work>
    </rdf:RDF>
  </metadata>
  <g
     id="layer1"
     inkscape:label="Layer 1"
     inkscape:groupmode="layer">
    <g
       id="g11454">
      <path
         style="fill:none;fill-rule:evenodd;stroke:#000000;stroke-width:3;stroke-linecap:butt;stroke-linejoin:miter;stroke-miterlimit:4;stroke-dasharray:none;stroke-opacity:1"
         d="M 236.2603,88.00001 L 408.70131,88.00001"
         id="path3869"
         sodipodi:nodetypes="cc" />
      <g
         id="g11438">
        <g
           id="g3851"
           transform="matrix(1.2477814,0,0,1,-47.302471,-210.89312)"
           style="fill:#3dff9b;fill-opacity:1">
          <path
             id="path3853"
             d="M 98.429098,257.11188 C 84.847978,257.11188 73.804098,275.83083 73.804098,298.89313 C 73.804098,321.95541 84.847968,340.67438 98.429098,340.67438 C 99.054618,340.67438 99.659018,340.62739 100.27285,340.54938 L 100.27285,340.64313 L 240.27285,340.64313 C 240.33443,340.64585 240.39866,340.64118 240.46035,340.64313 C 240.61507,340.64801 240.77369,340.67438 240.9291,340.67438 C 254.51022,340.67438 265.52327,321.95587 265.52327,298.8936 C 265.52327,275.83132 254.51023,257.11188 240.9291,257.11188 C 240.77369,257.11188 240.61507,257.13825 240.46035,257.14313 L 240.46035,257.11188 L 100.27285,257.11188 L 100.27285,257.23688 C 99.659018,257.15887 99.054608,257.11188 98.429098,257.11188 z"
             style="opacity:1;fill:#3dff9b;fill-opacity:1;stroke:#000000;stroke-width:2;stroke-linecap:round;stroke-linejoin:round;stroke-miterlimit:4;stroke-dasharray:none;stroke-opacity:1"
             sodipodi:nodetypes="csscccssssccccc" />
        </g>
        <text
           xml:space="preserve"
           style="font-size:40px;font-style:normal;font-weight:normal;fill:#000000;fill-opacity:1;stroke:none;stroke-width:1px;stroke-linecap:butt;stroke-linejoin:miter;stroke-opacity:1;font-family:Bitstream Vera Sans"
           x="69.791344"
           y="102.91212"
           id="text3855"><tspan
             sodipodi:role="line"
             id="tspan3857"
             x="69.791344"
             y="102.91212">DataType</tspan></text>
      </g>
      <rect
         y="45.594505"
         x="407.99356"
         height="84.810997"
         width="203.43761"
         id="rect3224"
         style="fill:#c8b7b7;fill-opacity:1;stroke:#000000;stroke-width:2.05539799;stroke-miterlimit:4;stroke-dasharray:none;stroke-opacity:1" />
      <text
         id="text3235"
         y="102.9121"
         x="412.19284"
         style="font-size:40px;font-style:normal;font-weight:normal;fill:#000000;fill-opacity:1;stroke:none;stroke-width:1px;stroke-linecap:butt;stroke-linejoin:miter;stroke-opacity:1;font-family:Bitstream Vera Sans"
         xml:space="preserve"><tspan
           y="102.9121"
           x="412.19284"
           id="tspan3237"
           sodipodi:role="line">Individual</tspan></text>
    </g>
    <g
       id="g14803">
      <path
         style="fill:none;fill-rule:evenodd;stroke:#000000;stroke-width:3;stroke-linecap:butt;stroke-linejoin:miter;stroke-opacity:1;stroke-miterlimit:4;stroke-dasharray:none"
         d="M 407.29351,664.76241 L 516.18795,618.09336"
         id="path17973" />
      <path
         style="fill:none;fill-rule:evenodd;stroke:#000000;stroke-width:3;stroke-linecap:butt;stroke-linejoin:miter;stroke-opacity:1;stroke-miterlimit:4;stroke-dasharray:none"
         d="M 408.70772,661.93398 L 517.60216,704.36039"
         id="path17975" />
      <path
         style="fill:none;fill-rule:evenodd;stroke:#000000;stroke-width:3;stroke-linecap:butt;stroke-linejoin:miter;stroke-miterlimit:4;stroke-dasharray:none;stroke-opacity:1"
         d="M 261.62951,663.3482 L 403.05087,663.3482"
         id="path17930" />
      <g
         id="g17885">
        <path
           style="fill:none;fill-rule:evenodd;stroke:#000000;stroke-width:3;stroke-linecap:butt;stroke-linejoin:miter;marker-start:url(#DotL);marker-end:url(#DotL);stroke-miterlimit:4;stroke-dasharray:none;stroke-opacity:1"
           d="M 530,230 L 653,229"
           id="path12042"
           sodipodi:nodetypes="cc" />
        <path
           style="fill:none;fill-rule:evenodd;stroke:#000000;stroke-width:3;stroke-linecap:butt;stroke-linejoin:miter;marker-end:url(#Arrow1Lend);stroke-miterlimit:4;stroke-dasharray:none;stroke-opacity:1"
           d="M 421.37386,262.71172 L 578.6355,361.12054"
           id="path12026"
           sodipodi:nodetypes="cc" />
        <path
           style="fill:none;fill-rule:evenodd;stroke:#000000;stroke-width:3;stroke-linecap:butt;stroke-linejoin:miter;marker-end:url(#Arrow1Lend);stroke-miterlimit:4;stroke-dasharray:none;stroke-opacity:1"
           d="M 361.1896,373.02037 L 368.5446,272.02508"
           id="path12024"
           sodipodi:nodetypes="cc" />
        <path
           style="fill:none;fill-rule:evenodd;stroke:#000000;stroke-width:3;stroke-linecap:butt;stroke-linejoin:miter;marker-end:url(#Arrow1Lend);stroke-miterlimit:4;stroke-dasharray:none;stroke-opacity:1"
           d="M 158.39192,393.23341 L 321.02648,267.3684"
           id="path11505" />
        <g
           id="g11469"
           transform="translate(172,18)">
          <g
             style="fill:#923dff;fill-opacity:1"
             transform="matrix(1.4854957,0,0,1,-49.03467,-88.89313)"
             id="g11446">
            <path
               sodipodi:nodetypes="csscccssssccccc"
               style="opacity:1;fill:#923dff;fill-opacity:1;stroke:#000000;stroke-width:4.92283821;stroke-linecap:round;stroke-linejoin:round;stroke-miterlimit:4;stroke-dasharray:none;stroke-opacity:1"
               d="M 98.429098,257.11188 C 84.847978,257.11188 73.804098,275.83083 73.804098,298.89313 C 73.804098,321.95541 84.847968,340.67438 98.429098,340.67438 C 99.054618,340.67438 99.659018,340.62739 100.27285,340.54938 L 100.27285,340.64313 L 240.27285,340.64313 C 240.33443,340.64585 240.39866,340.64118 240.46035,340.64313 C 240.61507,340.64801 240.77369,340.67438 240.9291,340.67438 C 254.51022,340.67438 265.52327,321.95587 265.52327,298.8936 C 265.52327,275.83132 254.51023,257.11188 240.9291,257.11188 C 240.77369,257.11188 240.61507,257.13825 240.46035,257.14313 L 240.46035,257.11188 L 100.27285,257.11188 L 100.27285,257.23688 C 99.659018,257.15887 99.054608,257.11188 98.429098,257.11188 z"
               id="path11448" />
          </g>
          <text
             id="text11450"
             y="224.91211"
             x="85.390625"
             style="font-size:40px;font-style:normal;font-weight:normal;fill:#000000;fill-opacity:1;stroke:none;stroke-width:1px;stroke-linecap:butt;stroke-linejoin:miter;stroke-opacity:1;font-family:Bitstream Vera Sans"
             xml:space="preserve"><tspan
               y="224.91211"
               x="85.390625"
               id="tspan11452"
               sodipodi:role="line">hasProperty</tspan></text>
        </g>
        <g
           id="g10588"
           transform="translate(194.33632,99.10687)">
          <g
             id="g10590">
            <g
               id="g10592">
              <path
                 id="path10594"
                 d="M 98.429098,257.11188 C 84.847978,257.11188 73.804098,275.83083 73.804098,298.89313 C 73.804098,321.95541 84.847968,340.67438 98.429098,340.67438 C 99.054618,340.67438 99.659018,340.62739 100.27285,340.54938 L 100.27285,340.64313 L 240.27285,340.64313 C 240.33443,340.64585 240.39866,340.64118 240.46035,340.64313 C 240.61507,340.64801 240.77369,340.67438 240.9291,340.67438 C 254.51022,340.67438 265.52327,321.95587 265.52327,298.8936 C 265.52327,275.83132 254.51023,257.11188 240.9291,257.11188 C 240.77369,257.11188 240.61507,257.13825 240.46035,257.14313 L 240.46035,257.11188 L 100.27285,257.11188 L 100.27285,257.23688 C 99.659018,257.15887 99.054608,257.11188 98.429098,257.11188 z"
                 style="opacity:1;fill:#00b6c1;fill-opacity:1;stroke:#000000;stroke-width:2;stroke-linecap:round;stroke-linejoin:round;stroke-miterlimit:4;stroke-dasharray:none;stroke-opacity:1"
                 sodipodi:nodetypes="csscccssssccccc" />
            </g>
            <text
               xml:space="preserve"
               style="font-size:40px;font-style:normal;font-weight:normal;fill:#000000;fill-opacity:1;stroke:none;stroke-width:1px;stroke-linecap:butt;stroke-linejoin:miter;stroke-opacity:1;font-family:Bitstream Vera Sans"
               x="116.87051"
               y="313.80524"
               id="text10596"><tspan
                 sodipodi:role="line"
                 id="tspan10598"
                 x="116.87051"
                 y="313.80524">Class</tspan></text>
          </g>
        </g>
        <g
           id="g11481"
           transform="translate(416.33632,101.10687)">
          <g
             id="g11483">
            <g
               id="g11485">
              <path
                 id="path11487"
                 d="M 98.429098,257.11188 C 84.847978,257.11188 73.804098,275.83083 73.804098,298.89313 C 73.804098,321.95541 84.847968,340.67438 98.429098,340.67438 C 99.054618,340.67438 99.659018,340.62739 100.27285,340.54938 L 100.27285,340.64313 L 240.27285,340.64313 C 240.33443,340.64585 240.39866,340.64118 240.46035,340.64313 C 240.61507,340.64801 240.77369,340.67438 240.9291,340.67438 C 254.51022,340.67438 265.52327,321.95587 265.52327,298.8936 C 265.52327,275.83132 254.51023,257.11188 240.9291,257.11188 C 240.77369,257.11188 240.61507,257.13825 240.46035,257.14313 L 240.46035,257.11188 L 100.27285,257.11188 L 100.27285,257.23688 C 99.659018,257.15887 99.054608,257.11188 98.429098,257.11188 z"
                 style="opacity:1;fill:#00b6c1;fill-opacity:1;stroke:#000000;stroke-width:2;stroke-linecap:round;stroke-linejoin:round;stroke-miterlimit:4;stroke-dasharray:none;stroke-opacity:1"
                 sodipodi:nodetypes="csscccssssccccc" />
            </g>
            <text
               xml:space="preserve"
               style="font-size:40px;font-style:normal;font-weight:normal;fill:#000000;fill-opacity:1;stroke:none;stroke-width:1px;stroke-linecap:butt;stroke-linejoin:miter;stroke-opacity:1;font-family:Bitstream Vera Sans"
               x="116.87051"
               y="313.80524"
               id="text11489"><tspan
                 sodipodi:role="line"
                 id="tspan11491"
                 x="116.87051"
                 y="313.80524">Class</tspan></text>
          </g>
        </g>
        <g
           id="g11493"
           transform="translate(-33.66368,95.10687)">
          <g
             id="g11495">
            <g
               id="g11497">
              <path
                 id="path11499"
                 d="M 98.429098,257.11188 C 84.847978,257.11188 73.804098,275.83083 73.804098,298.89313 C 73.804098,321.95541 84.847968,340.67438 98.429098,340.67438 C 99.054618,340.67438 99.659018,340.62739 100.27285,340.54938 L 100.27285,340.64313 L 240.27285,340.64313 C 240.33443,340.64585 240.39866,340.64118 240.46035,340.64313 C 240.61507,340.64801 240.77369,340.67438 240.9291,340.67438 C 254.51022,340.67438 265.52327,321.95587 265.52327,298.8936 C 265.52327,275.83132 254.51023,257.11188 240.9291,257.11188 C 240.77369,257.11188 240.61507,257.13825 240.46035,257.14313 L 240.46035,257.11188 L 100.27285,257.11188 L 100.27285,257.23688 C 99.659018,257.15887 99.054608,257.11188 98.429098,257.11188 z"
                 style="opacity:1;fill:#00b6c1;fill-opacity:1;stroke:#000000;stroke-width:2;stroke-linecap:round;stroke-linejoin:round;stroke-miterlimit:4;stroke-dasharray:none;stroke-opacity:1"
                 sodipodi:nodetypes="csscccssssccccc" />
            </g>
            <text
               xml:space="preserve"
               style="font-size:40px;font-style:normal;font-weight:normal;fill:#000000;fill-opacity:1;stroke:none;stroke-width:1px;stroke-linecap:butt;stroke-linejoin:miter;stroke-opacity:1;font-family:Bitstream Vera Sans"
               x="116.87051"
               y="313.80524"
               id="text11501"><tspan
                 sodipodi:role="line"
                 id="tspan11503"
                 x="116.87051"
                 y="313.80524">Class</tspan></text>
          </g>
        </g>
        <g
           transform="matrix(1.6504261,0,0,1,542.82953,-71.051646)"
           id="g12034">
          <path
             id="path12036"
             d="M 98.429098,257.11188 C 84.847978,257.11188 73.804098,275.83083 73.804098,298.89313 C 73.804098,321.95541 84.847968,340.67438 98.429098,340.67438 C 99.054618,340.67438 99.659018,340.62739 100.27285,340.54938 L 100.27285,340.64313 L 240.27285,340.64313 C 240.33443,340.64585 240.39866,340.64118 240.46035,340.64313 C 240.61507,340.64801 240.77369,340.67438 240.9291,340.67438 C 254.51022,340.67438 265.52327,321.95587 265.52327,298.8936 C 265.52327,275.83132 254.51023,257.11188 240.9291,257.11188 C 240.77369,257.11188 240.61507,257.13825 240.46035,257.14313 L 240.46035,257.11188 L 100.27285,257.11188 L 100.27285,257.23688 C 99.659018,257.15887 99.054608,257.11188 98.429098,257.11188 z"
             style="opacity:1;fill:#00b6c1;fill-opacity:1;stroke:#000000;stroke-width:2;stroke-linecap:round;stroke-linejoin:round;stroke-miterlimit:4;stroke-dasharray:none;stroke-opacity:1"
             sodipodi:nodetypes="csscccssssccccc" />
        </g>
        <text
           xml:space="preserve"
           style="font-size:40px;font-style:normal;font-weight:normal;fill:#000000;fill-opacity:1;stroke:none;stroke-width:1px;stroke-linecap:butt;stroke-linejoin:miter;stroke-opacity:1;font-family:Bitstream Vera Sans"
           x="695.05371"
           y="242.75359"
           id="text12038"><tspan
             sodipodi:role="line"
             id="tspan12040"
             x="695.05371"
             y="242.75359">DomainClass</tspan></text>
      </g>
      <g
         id="g17809">
        <path
           id="path17807"
           d="M 321.02648,509 L 537.40115,509"
           style="fill:none;fill-rule:evenodd;stroke:#ff0000;stroke-width:4;stroke-linecap:butt;stroke-linejoin:miter;stroke-miterlimit:4;stroke-dasharray:none;stroke-opacity:1" />
        <g
           id="g14911"
           transform="translate(-25,299)">
          <g
             style="fill:#923dff;fill-opacity:1"
             transform="matrix(1.4854957,0,0,1,-49.03467,-88.89313)"
             id="g14913">
            <path
               sodipodi:nodetypes="csscccssssccccc"
               style="opacity:1;fill:#923dff;fill-opacity:1;stroke:#000000;stroke-width:4.92283821;stroke-linecap:round;stroke-linejoin:round;stroke-miterlimit:4;stroke-dasharray:none;stroke-opacity:1"
               d="M 98.429098,257.11188 C 84.847978,257.11188 73.804098,275.83083 73.804098,298.89313 C 73.804098,321.95541 84.847968,340.67438 98.429098,340.67438 C 99.054618,340.67438 99.659018,340.62739 100.27285,340.54938 L 100.27285,340.64313 L 240.27285,340.64313 C 240.33443,340.64585 240.39866,340.64118 240.46035,340.64313 C 240.61507,340.64801 240.77369,340.67438 240.9291,340.67438 C 254.51022,340.67438 265.52327,321.95587 265.52327,298.8936 C 265.52327,275.83132 254.51023,257.11188 240.9291,257.11188 C 240.77369,257.11188 240.61507,257.13825 240.46035,257.14313 L 240.46035,257.11188 L 100.27285,257.11188 L 100.27285,257.23688 C 99.659018,257.15887 99.054608,257.11188 98.429098,257.11188 z"
               id="path14915" />
          </g>
          <text
             id="text14917"
             y="224.91211"
             x="85.390625"
             style="font-size:40px;font-style:normal;font-weight:normal;fill:#000000;fill-opacity:1;stroke:none;stroke-width:1px;stroke-linecap:butt;stroke-linejoin:miter;stroke-opacity:1;font-family:Bitstream Vera Sans"
             xml:space="preserve"><tspan
               y="224.91211"
               x="85.390625"
               id="tspan14919"
               sodipodi:role="line">hasProperty</tspan></text>
        </g>
        <g
           id="g14954"
           transform="translate(478.63247,299)">
          <g
             style="fill:#923dff;fill-opacity:1"
             transform="matrix(1.4854957,0,0,1,-49.03467,-88.89313)"
             id="g14956">
            <path
               sodipodi:nodetypes="csscccssssccccc"
               style="opacity:1;fill:#923dff;fill-opacity:1;stroke:#000000;stroke-width:4.92283821;stroke-linecap:round;stroke-linejoin:round;stroke-miterlimit:4;stroke-dasharray:none;stroke-opacity:1"
               d="M 98.429098,257.11188 C 84.847978,257.11188 73.804098,275.83083 73.804098,298.89313 C 73.804098,321.95541 84.847968,340.67438 98.429098,340.67438 C 99.054618,340.67438 99.659018,340.62739 100.27285,340.54938 L 100.27285,340.64313 L 240.27285,340.64313 C 240.33443,340.64585 240.39866,340.64118 240.46035,340.64313 C 240.61507,340.64801 240.77369,340.67438 240.9291,340.67438 C 254.51022,340.67438 265.52327,321.95587 265.52327,298.8936 C 265.52327,275.83132 254.51023,257.11188 240.9291,257.11188 C 240.77369,257.11188 240.61507,257.13825 240.46035,257.14313 L 240.46035,257.11188 L 100.27285,257.11188 L 100.27285,257.23688 C 99.659018,257.15887 99.054608,257.11188 98.429098,257.11188 z"
               id="path14958" />
          </g>
          <text
             id="text14960"
             y="224.91211"
             x="85.390625"
             style="font-size:40px;font-style:normal;font-weight:normal;fill:#000000;fill-opacity:1;stroke:none;stroke-width:1px;stroke-linecap:butt;stroke-linejoin:miter;stroke-opacity:1;font-family:Bitstream Vera Sans"
             xml:space="preserve"><tspan
               y="224.91211"
               x="85.390625"
               id="tspan14962"
               sodipodi:role="line">hasProperty</tspan></text>
        </g>
      </g>
      <g
         id="g17943">
        <g
           transform="translate(-4.2006928,364.45507)"
           id="g17877">
          <path
             id="path17879"
             d="M 98.429098,257.11188 C 84.847978,257.11188 73.804098,275.83083 73.804098,298.89313 C 73.804098,321.95541 84.847968,340.67438 98.429098,340.67438 C 99.054618,340.67438 99.659018,340.62739 100.27285,340.54938 L 100.27285,340.64313 L 240.27285,340.64313 C 240.33443,340.64585 240.39866,340.64118 240.46035,340.64313 C 240.61507,340.64801 240.77369,340.67438 240.9291,340.67438 C 254.51022,340.67438 265.52327,321.95587 265.52327,298.8936 C 265.52327,275.83132 254.51023,257.11188 240.9291,257.11188 C 240.77369,257.11188 240.61507,257.13825 240.46035,257.14313 L 240.46035,257.11188 L 100.27285,257.11188 L 100.27285,257.23688 C 99.659018,257.15887 99.054608,257.11188 98.429098,257.11188 z"
             style="opacity:1;fill:#00b6c1;fill-opacity:1;stroke:#000000;stroke-width:2;stroke-linecap:round;stroke-linejoin:round;stroke-miterlimit:4;stroke-dasharray:none;stroke-opacity:1"
             sodipodi:nodetypes="csscccssssccccc" />
        </g>
        <text
           xml:space="preserve"
           style="font-size:40px;font-style:normal;font-weight:normal;fill:#000000;fill-opacity:1;stroke:none;stroke-width:1px;stroke-linecap:butt;stroke-linejoin:miter;stroke-opacity:1;font-family:Bitstream Vera Sans"
           x="112.66982"
           y="678.26031"
           id="text17881"><tspan
             sodipodi:role="line"
             id="tspan17883"
             x="112.66982"
             y="678.26031">Class</tspan></text>
      </g>
      <g
         id="g17925"
         transform="translate(-118.79394,2.6855469e-6)">
        <path
           transform="translate(371.87108,572.82595)"
           d="M 155.97679,90.522247 A 38.52998,38.52998 0 1 1 78.916828,90.522247 A 38.52998,38.52998 0 1 1 155.97679,90.522247 z"
           sodipodi:ry="38.52998"
           sodipodi:rx="38.52998"
           sodipodi:cy="90.522247"
           sodipodi:cx="117.44681"
           id="path10602"
           style="fill:#ffff00;stroke:#000000;stroke-width:2;stroke-miterlimit:4;stroke-dasharray:none;stroke-opacity:1"
           sodipodi:type="arc" />
        <text
           sodipodi:linespacing="125%"
           id="text10604"
           y="677.66461"
           x="472.63821"
           style="font-size:40px;font-style:normal;font-variant:normal;font-weight:normal;font-stretch:normal;text-align:start;line-height:125%;writing-mode:lr-tb;text-anchor:start;fill:#000000;fill-opacity:1;stroke:none;stroke-width:6;stroke-linecap:butt;stroke-linejoin:miter;stroke-miterlimit:4;stroke-dasharray:none;stroke-opacity:1;font-family:Arial Black;-inkscape-font-specification:Arial Black"
           xml:space="preserve"><tspan
             y="677.66461"
             x="472.63821"
             id="tspan10606"
             sodipodi:role="line">N</tspan></text>
      </g>
      <g
         id="g17963"
         transform="translate(-76.367533,32.526912)">
        <path
           transform="translate(2.9495773,-2.0729332)"
           d="M 733.97682,675.36902 A 72.124893,36.062447 0 1 1 589.72704,675.36902 A 72.124893,36.062447 0 1 1 733.97682,675.36902 z"
           sodipodi:ry="36.062447"
           sodipodi:rx="72.124893"
           sodipodi:cy="675.36902"
           sodipodi:cx="661.85193"
           id="path17932"
           style="opacity:1;fill:#ff4900;fill-opacity:1;stroke:#000000;stroke-width:3;stroke-miterlimit:4;stroke-dasharray:none;stroke-opacity:1"
           sodipodi:type="arc" />
        <text
           id="text17949"
           y="687.85663"
           x="626.47144"
           style="font-size:40px;font-style:normal;font-weight:normal;fill:#000000;fill-opacity:1;stroke:none;stroke-width:1px;stroke-linecap:butt;stroke-linejoin:miter;stroke-opacity:1;font-family:Bitstream Vera Sans"
           xml:space="preserve"><tspan
             y="687.85663"
             x="626.47144"
             id="tspan17951"
             sodipodi:role="line">666</tspan></text>
      </g>
      <g
         id="g17968"
         transform="translate(-284.25693,-39.59798)">
        <path
           transform="translate(210.71783,-21.920317)"
           d="M 733.97682,675.36902 A 72.124893,36.062447 0 1 1 589.72704,675.36902 A 72.124893,36.062447 0 1 1 733.97682,675.36902 z"
           sodipodi:ry="36.062447"
           sodipodi:rx="72.124893"
           sodipodi:cy="675.36902"
           sodipodi:cx="661.85193"
           id="path17953"
           style="opacity:1;fill:#a2ff00;fill-opacity:1;stroke:#000000;stroke-width:3;stroke-miterlimit:4;stroke-dasharray:none;stroke-opacity:1"
           sodipodi:type="arc" />
        <text
           id="text17959"
           y="668.02881"
           x="859.49359"
           style="font-size:40px;font-style:normal;font-weight:normal;fill:#000000;fill-opacity:1;stroke:none;stroke-width:1px;stroke-linecap:butt;stroke-linejoin:miter;stroke-opacity:1;font-family:Bitstream Vera Sans"
           xml:space="preserve"><tspan
             y="668.02881"
             x="859.49359"
             id="tspan17961"
             sodipodi:role="line">1</tspan></text>
      </g>
    </g>
  </g>
</svg>
